<?xml version="1.0" encoding="UTF-8"?>
<svg width="437px" height="330px" viewBox="0 0 437 330" version="1.1" xmlns="http://www.w3.org/2000/svg" xmlns:xlink="http://www.w3.org/1999/xlink">
    <!-- Generator: Sketch 52.2 (67145) - http://www.bohemiancoding.com/sketch -->
    <title>undraw_newsletter_vovu</title>
    <desc>Created with Sketch.</desc>
    <defs>
        <linearGradient x1="0.00572912906%" y1="50.0083239%" x2="99.9475584%" y2="50.0083239%" id="linearGradient-1">
            <stop stop-color="#808080" stop-opacity="0.25" offset="0%"></stop>
            <stop stop-color="#808080" stop-opacity="0.12" offset="54%"></stop>
            <stop stop-color="#808080" stop-opacity="0.1" offset="100%"></stop>
        </linearGradient>
        <linearGradient x1="50.0009134%" y1="100.0056%" x2="50.0009134%" y2="-0.000695461321%" id="linearGradient-2">
            <stop stop-color="#808080" stop-opacity="0.25" offset="0%"></stop>
            <stop stop-color="#808080" stop-opacity="0.12" offset="54%"></stop>
            <stop stop-color="#808080" stop-opacity="0.1" offset="100%"></stop>
        </linearGradient>
    </defs>
    <g id="Symbols" stroke="none" stroke-width="1" fill="none" fill-rule="evenodd">
        <g id="Streaks-/-Streak-newsletter" transform="translate(-300.000000, -35.000000)">
            <g id="undraw_newsletter_vovu" transform="translate(300.000000, 35.000000)">
                <ellipse id="Oval" fill="#F5F5F5" fill-rule="nonzero" cx="235" cy="284.5" rx="159" ry="45.5"></ellipse>
                <path d="M385.441185,108 C385.441185,108 357.333674,136.125313 373.200817,177.859649 C389.067961,219.593985 346,289 346,289 C346,289 346.453347,288.931955 347.31924,288.782256 C405.048441,278.584561 433.731703,212.517293 401.630205,163.438622 C389.711713,145.193459 379.896752,123.786466 385.441185,108 Z" id="Shape" fill="#CF2B66" fill-rule="nonzero"></path>
                <path d="M385.484796,108 C385.484796,108 369.600108,142.47619 385.484796,170.601504 C401.369484,198.726817 388.207885,277.659148 346,289" id="Shape" stroke="#535461" stroke-width="2"></path>
                <path d="M436,222.352981 C436,222.352981 403.810741,217.220405 400.876173,246.098547 C397.941604,274.97669 339,278.975272 339,278.975272 C339,278.975272 339.382176,279.239415 340.105582,279.713051 C388.78757,311.701708 435.326642,300.088514 428.315525,257.611549 C425.690338,241.822159 425.899625,225.959903 436,222.352981 Z" id="Shape" fill="#CF2B66" fill-rule="nonzero"></path>
                <path d="M436,222.352981 C436,222.352981 403.810741,217.220405 400.876173,246.098547 C397.941604,274.97669 339,278.975272 339,278.975272 C339,278.975272 339.382176,279.239415 340.105582,279.713051 C388.78757,311.701708 435.326642,300.088514 428.315525,257.611549 C425.690338,241.822159 425.899625,225.959903 436,222.352981 Z" id="Shape" fill="#F5F5F5" fill-rule="nonzero" opacity="0.2"></path>
                <path d="M436,222 C436,222 411.017633,227.449468 413.069171,250.015509 C415.120709,272.581549 375.95498,299.621034 339,278.171095" id="Shape" stroke="#535461" stroke-width="2"></path>
                <path d="M69.0548835,0.0387827181 C65.3786757,-0.0883947845 61.611247,0.0387827181 58.1630919,1.31964185 C48.7810084,4.80339701 44.3339829,16.1994097 45.7798363,26.0692923 C47.2256897,35.9391749 53.1733012,44.5100301 59.3444043,52.3632409 C65.5155073,60.2164517 72.2020092,67.9697373 75.5863096,77.3445361 C77.2738987,82.0273934 78.0629607,87.2734654 76.3480052,91.9472386 C73.7025952,99.1554778 65.7253157,103.184279 58.0673098,104.020017 C50.4093039,104.855755 42.7193706,103.225158 35.0339984,102.657401 C31.8093348,102.430298 28.4934502,102.403046 25.4557897,103.456803 C22.1216608,104.605942 19.3439803,106.949642 16.7897913,109.393267 C6.82389324,118.977 -1.15338629,132.058114 0.137391359,145.793285 C1.59692792,161.363445 14.6141696,173.67241 28.8720175,180.272014 C33.592706,182.461284 38.5870577,184.232685 42.7421759,187.357618 C53.6887001,195.596903 56.147107,211.035344 55.0570156,224.666047 C53.9669242,238.29675 50.2542281,251.941079 52.3203846,265.453689 C54.7514251,281.169194 65.5109462,295.363112 80.024213,301.99451 C92.9547947,307.89918 109.137406,307.531274 120.617574,299.178437 C126.213984,295.090589 130.44664,289.4539 134.127409,283.608277 C139.682955,274.789285 144.190617,265.357288 147.559706,255.502049 C149.160636,250.819192 150.665783,245.782054 154.401284,242.525402 C156.68181,240.522356 159.637371,239.400469 162.561006,238.528394 C171.372958,235.903087 180.654698,235.180901 189.548749,232.846285 C198.4428,230.51167 207.391583,226.160382 212.226298,218.379844 C219.067876,207.338112 215.87514,193.216867 215.907067,180.226594 C215.9618,150.630572 233.74534,124.132231 240.308694,95.2901901 C242.452388,85.8608867 243.250572,75.4277894 238.461468,67.0204481 C235.204877,61.2838343 229.717932,57.195986 223.948201,54.0165485 C211.268477,47.0036176 196.855554,43.8832267 182.675244,40.8445928 C162.966939,36.629567 139.035101,36.0845206 123.760138,22.4492755 C109.100918,9.36816094 89.0459733,0.0387827181 69.0548835,0.0387827181 Z" id="Shape" fill="#CF2B66" fill-rule="nonzero" opacity="0.2"></path>
                <g id="Group" opacity="0.5" transform="translate(47.000000, 13.000000)" fill="url(#linearGradient-1)" fill-rule="nonzero">
                    <path d="M92.6190741,100.853796 C92.6180341,93.7279958 91.5020371,86.6462376 89.3115741,79.865463 L83.8671296,62.9831481 C83.8671296,62.7018519 83.8671296,62.4250926 83.8671296,62.1483333 C84.035,51.3275 75.6006481,45.9284259 72.3521296,46.5137037 C69.0264815,47.1125926 59.7981481,42.4848148 59.7981481,42.4848148 L59.7981481,42.6118519 C59.1654217,41.8834762 58.5947868,41.1034061 58.0922222,40.2798148 C61.3132925,37.933855 63.4522564,34.3881096 64.0252384,30.4446958 C64.5982204,26.5012819 63.5568025,22.4934239 61.1365741,19.3277778 C62.1339884,18.5783312 62.8947111,17.5577343 63.327963,16.3877778 C64.0811111,14.2689815 63.5049074,11.8507407 62.2799074,9.96333333 C61.7590217,9.17543811 61.1501663,8.44937808 60.4650926,7.79916667 C59.4274232,6.77114354 58.2940833,5.84441787 57.080463,5.03157407 C54.0542593,2.93546296 50.7286111,1.13425926 47.0989815,0.494537037 C46.4709195,0.34623725 45.8169509,0.34623725 45.1888889,0.494537037 C44.6437874,0.714511875 44.1248793,0.994509178 43.6417593,1.32935185 C41.155463,2.74490741 38.0612037,2.13240741 35.1937963,1.98268519 C32.3263889,1.83296296 28.8419444,2.63601852 27.934537,5.32648148 C27.6532407,6.15675926 27.6713889,7.05509259 27.4808333,7.90805556 C27.0271296,9.99509259 25.4164815,11.6148148 24.1733333,13.3525 C22.9301852,15.0901852 22.0000926,17.4358333 23.034537,19.3232407 C23.3884259,19.9584259 23.9419444,20.5437037 23.9419444,21.2696296 C23.9419444,21.7913889 23.6334259,22.2587037 23.4882407,22.7577778 C23.1751852,23.892037 23.765,25.0262963 24.6724074,25.8475 C25.0634148,26.2690523 25.5237837,26.6204672 26.0335185,26.8864815 C27.4717593,27.6214815 29.1277778,27.8483333 30.5932407,28.5288889 C31.3247345,28.872424 31.9958158,29.3320688 32.580463,29.89 C34.0271235,31.4044003 34.8051958,33.4362152 34.7400926,35.529537 L35.0440741,35.5612963 C35.0440741,35.652037 35.0440741,35.7382407 35.0440741,35.8289815 C35.3616667,35.8652778 35.6974074,35.897037 36.0286111,35.9106481 C36.505041,36.679767 37.0502034,37.4041192 37.6574074,38.0748148 C37.5545679,38.4619753 37.4381173,38.8551852 37.3080556,39.2544444 C36.2418519,39.9939815 27.5216667,45.8013889 17.6037037,44.4039815 C7.0187963,42.9112963 0.966388889,89.1890741 0.966388889,89.1890741 C0.574064943,91.8355495 0.382961663,94.507962 0.394722222,97.1833333 C0.349351852,103.988889 1.77851852,112.895093 9.74101852,111.583889 L13.9740741,110.191019 L13.9740741,133.08037 C13.9740741,133.08037 14.5775,139.350556 12.4632407,143.515556 C10.3489815,147.680556 19.1190741,146.201481 19.1190741,146.201481 C19.1190741,146.201481 19.4548148,146.550833 20.0718519,147.145185 L19.8767593,147.694167 L20.1353704,147.957315 C18.9819317,151.900647 17.4266464,155.715125 15.4939815,159.340741 L15.7435185,159.467778 C15.5847222,159.771759 15.4939815,159.921481 15.4939815,159.921481 C15.4939815,159.921481 18.7515741,161.586574 23.2341667,163.732593 C26.8365741,175.91 34.7219444,204.112222 32.1267593,209.484074 L32.1993519,209.638333 C32.6848148,210.645556 35.397963,216.584537 34.8489815,222.024444 C34.3544444,226.888148 41.0874074,248.988056 43.6009259,257.014074 L42.4122222,257.254537 L46.6452778,272.480833 L45.7378704,282.335278 C45.7378704,282.335278 40.5974074,296.068889 52.6931481,293.382963 C64.7888889,290.697037 61.4632407,279.649352 61.4632407,279.649352 L61.7672222,257.254537 C61.7672222,257.254537 60.6012037,256.605741 59.162963,255.984167 C58.1738889,253.311852 56.0187963,246.996296 56.0187963,242.62713 C56.0187963,236.955833 52.0851852,212.469444 52.0851852,212.469444 L52.0851852,212.419537 L52.0851852,212.324259 L52.0851852,212.297037 L52.0625,211.97037 L52.0625,211.915926 C52.0625,211.611944 52.0125926,211.194537 51.9762963,210.686389 L51.9762963,210.659167 C51.5225926,204.03963 50.1614815,181.549537 51.1550926,169.825833 C52.0288865,169.229968 52.9379573,168.687556 53.8773148,168.201574 C56.8218519,175.642315 64.4123148,195.745926 63.9268519,204.180278 C63.3234259,214.615463 63.7771296,206.421574 63.9268519,205.087685 C63.9722222,204.674815 64.0039815,205.173889 64.0175926,206.294537 C64.0175926,206.498704 64.0175926,206.725556 64.0175926,206.966019 C64.0175926,207.206481 64.0175926,207.474167 64.0175926,207.750926 C64.0175926,208.027685 64.0175926,208.32713 64.0175926,208.658333 C64.0175926,208.815617 64.0175926,208.975926 64.0175926,209.139259 C64.0175926,209.465926 64.0175926,209.807716 64.0175926,210.16463 C64.0175926,210.343086 64.0175926,210.524568 64.0175926,210.709074 C64.0175926,211.616481 64.0175926,212.623704 63.9858333,213.671759 C63.9858333,213.880463 63.9858333,214.092191 63.9858333,214.306944 C63.9858333,214.946667 63.9858333,215.6 63.9540741,216.262407 C63.9540741,217.169815 63.9177778,218.05 63.8996296,218.961944 C63.8542593,221.003611 63.7952778,223.067963 63.7226852,225.000741 C63.7226852,225.215494 63.7151235,225.428735 63.7,225.640463 C63.6848765,226.06392 63.6682407,226.478302 63.6500926,226.883611 C63.6319444,227.28892 63.6137963,227.685154 63.5956481,228.072315 C63.5775,228.456451 63.5578395,228.83 63.5366667,229.192963 C63.5139815,229.619444 63.4867593,230.027778 63.4640741,230.417963 L61.8216667,230.182037 L61.4723148,233.956852 C60.9219971,239.949986 61.6964623,245.990815 63.7408333,251.651296 C64.3034259,253.202963 64.7389815,254.486944 64.8342593,254.945185 C65.1382407,256.43787 64.8342593,267.195185 64.8342593,267.195185 C64.8342593,267.195185 66.6490741,281.228241 75.1197222,278.537778 C78.9308333,277.326389 80.7819444,273.642315 81.6666667,269.949167 C82.6483184,265.667983 82.2822493,261.187994 80.6186111,257.122963 C79.4162963,254.101296 78.1867593,249.863704 79.0533333,246.587963 C80.5641667,240.916667 80.5641667,232.854352 80.5641667,232.854352 L79.629537,232.722778 C79.862474,232.279951 80.0729567,231.825672 80.2601852,231.361667 C80.2601852,231.361667 79.9562037,210.758981 82.6784259,208.073056 C84.1756481,206.593981 84.039537,203.041481 83.5858333,200.137778 C82.9376994,195.935583 82.7854214,191.671799 83.1321296,187.434074 C83.3181481,185.251759 83.5858333,183.350741 83.8988889,182.674722 C84.6974074,181.095833 85.4959259,165.179907 81.9615741,157.521389 L82.6875,157.294537 L82.5740741,156.731944 L82.6875,156.695648 C83.2206369,158.118615 83.8263701,159.513315 84.5023148,160.874259 C84.6808856,161.014253 84.8862527,161.116164 85.1057407,161.173704 C94.9012037,159.454167 95.2959259,150.312037 94.7514815,145.321296 C95.1643519,145.520926 95.3912037,145.647963 95.3912037,145.647963 L96.2986111,132.490556 C97.2287037,130.389907 97.5735185,127.708519 97.5508333,124.809352 C97.5916667,114.446759 92.6190741,100.853796 92.6190741,100.853796 Z M81.8209259,138.252593 C81.1494444,132.522315 80.2193519,127.127778 80.2193519,127.127778 L75.6823148,111.003148 L75.6823148,105.132222 L82.8780556,131.991481 L81.8209259,138.252593 Z" id="Shape"></path>
                </g>
                <path d="M108.4963,239 L108.163443,242.71916 C107.638172,248.628592 108.382554,254.583519 110.345009,260.171306 C110.88028,261.703801 111.298601,262.966394 111.388563,263.419281 C111.67644,264.892306 111.388563,275.482533 111.388563,275.482533 C111.388563,275.482533 113.12482,289.311586 121.225853,286.662886 C124.869294,285.473487 126.623544,281.83667 127.487174,278.199853 C128.423467,273.98202 128.071959,269.574043 126.479605,265.564774 C125.328098,262.586701 124.149602,258.400931 124.981746,255.184978 C126.430127,249.594802 126.430127,241.653275 126.430127,241.653275 L108.4963,239 Z" id="Shape" fill="#5A5773" fill-rule="nonzero"></path>
                <path d="M99,176.256137 C99,176.256137 110.487768,204.05782 109.89689,214.295756 C109.306012,224.533692 109.750316,216.488949 109.89689,215.173943 C110.157976,212.830593 109.89689,240.655028 109.012863,243.840163 C109.012863,243.840163 121.091509,252.617487 125.804792,240.914389 C125.804792,240.914389 125.511643,220.72518 128.159143,218.090617 C129.615726,216.643656 129.473732,213.158207 129.04317,210.314336 C128.407668,206.200582 128.253962,202.027548 128.585125,197.878657 C128.763763,195.740066 129.011107,193.856286 129.331739,193.214708 C130.215765,191.458334 131.099792,171.560337 125.795631,166 L99,176.256137 Z" id="Shape" fill="#605D82" fill-rule="nonzero"></path>
                <path d="M110.410823,243.841059 C111.289278,240.623471 111.548719,212.81204 111.289278,215.169481 C111.143628,216.484733 110.702124,224.53553 111.289278,214.291129 C111.876433,204.046729 100.461059,176.2444 100.461059,176.2444 L126,166.423247 C125.881659,166.273063 125.758766,166.13198 125.635873,166 L99,176.2444 C99,176.2444 110.415374,204.05128 109.82822,214.291129 C109.241065,224.530979 109.682569,216.484733 109.82822,215.169481 C110.08766,212.825693 109.82822,240.655328 108.949764,243.841059 C108.949764,243.841059 113.742583,247.345363 118.453473,246.972177 C114.261463,246.658155 110.410823,243.841059 110.410823,243.841059 Z" id="Shape" fill="#000000" fill-rule="nonzero" opacity="0.1"></path>
                <path d="M90,266.355215 L94.1304647,281.237226 L93.2447095,290.865161 C93.2447095,290.865161 88.2284896,304.286193 100.03244,301.659156 C111.83639,299.032118 108.591681,288.238123 108.591681,288.238123 L108.885403,266.355215 C108.885403,266.355215 104.162905,263.728177 102.097672,264.023095 C100.03244,264.318013 90,266.355215 90,266.355215 Z" id="Shape" fill="#5A5773" fill-rule="nonzero"></path>
                <path d="M70,170 C70,170 83.5051826,213.26058 80.2772705,219.937933 C80.2772705,219.937933 83.5051826,226.326341 82.9207799,232.127827 C82.3363771,237.929314 92.3168806,269 92.3168806,269 L107,266.385945 C107,266.385945 103.475321,257.676943 103.475321,252.159887 C103.475321,246.642831 99.6584403,222.813845 99.6584403,222.813845 C99.6584403,222.813845 96.4305281,179.259805 100.247409,174.614101 L70,170 Z" id="Shape" fill="#605D82" fill-rule="nonzero"></path>
                <g id="Group" opacity="0.1" transform="translate(69.000000, 169.000000)" fill="#000000" fill-rule="nonzero">
                    <path d="M29.1487805,8.624 C26.7437805,18.5789767 29.4014634,55.2127442 29.4014634,55.2127442 C29.4014634,55.2127442 33.1736585,79.247814 33.1736585,84.8406512 C33.1736585,89.0933953 35.1996341,95.2195349 36.1607317,97.8814884 L36.9458537,97.740186 C36.9458537,97.740186 33.462439,88.9475349 33.462439,83.3774884 C33.462439,77.8074419 29.6902439,53.7495814 29.6902439,53.7495814 C29.6902439,53.7495814 27.2626829,20.2700465 29.1487805,8.624 Z" id="Shape"></path>
                    <path d="M10.5404878,50.8095814 L10.6126829,50.96 C10.6352439,50.8095814 10.6578049,50.6500465 10.6713415,50.504186 C10.6329295,50.608181 10.5892541,50.7101138 10.5404878,50.8095814 Z" id="Shape"></path>
                    <path d="M29.6180488,6.4907907 C29.7498901,5.98514633 29.9715798,5.50790757 30.2723171,5.08232558 L0.383536585,0.392 C0.383536585,0.392 0.559512195,0.961767442 0.861829268,1.97823256 L29.6180488,6.4907907 Z" id="Shape"></path>
                </g>
                <path d="M139.298948,154.331317 C139.298948,154.331317 143.678706,170.659611 130.543971,173 C130.330879,172.944594 130.131549,172.845766 129.958491,172.709719 C129.958491,172.709719 122.369936,157.832829 128.206587,152 L139.298948,154.331317 Z" id="Shape" fill="#A1616A" fill-rule="nonzero"></path>
                <path d="M86.6331032,44 C86.6331032,44 87.5069965,56.2587968 77.8986982,62.1021566 C68.2903998,67.9455165 98.2744486,84 98.2744486,84 L114,58.8876277 C114,58.8876277 107.307698,59.7548241 103.232548,48.0862656 L86.6331032,44 Z" id="Shape" fill="#A1616A" fill-rule="nonzero"></path>
                <path d="M79.8049037,64 C79.8049037,64 94.7401051,94.9626613 108.209107,65.7532034 L129,168.565408 C129,168.565408 96.7845884,178.498713 96.4977233,183.172408 C96.2108581,187.846103 64,171.199755 64,171.199755 C64,171.199755 71.0259194,158.345959 69.2728546,150.461086 C67.5197898,142.576213 79.8049037,64 79.8049037,64 Z" id="Shape" fill="#000000" fill-rule="nonzero" opacity="0.1"></path>
                <path d="M79.8049037,64 C79.8049037,64 94.7401051,94.9615383 108.209107,65.7531398 L129,168.566158 C129,168.566158 96.7845884,178.499102 96.4977233,183.172628 C96.2108581,187.846153 64,171.195867 64,171.195867 C64,171.195867 71.0259194,158.342537 69.2728546,150.45795 C67.5197898,142.573363 79.8049037,64 79.8049037,64 Z" id="Shape" fill="#E1E7EF" fill-rule="nonzero"></path>
                <path d="M93.8075903,274 C93.8075903,274 90.0616161,266 98.7051378,266 C107.34866,266 105.910313,273.172118 105.910313,273.172118 L93.8075903,274 Z" id="Shape" fill="#5A5773" fill-rule="nonzero"></path>
                <path d="M113.666509,252 C113.666509,252 110.292308,243.286705 118.727811,243.00704 C127.163314,242.727376 122.945562,250.872603 122.945562,250.872603 L113.666509,252 Z" id="Shape" fill="#5A5773" fill-rule="nonzero"></path>
                <path d="M107,57 C107,57 116.054855,61.5269353 119.324022,60.9293798 C122.59319,60.3318244 131.20015,65.8773201 130.609114,76.9411498 L135.974612,93.4463558 C138.120955,100.064477 139.21123,106.968033 139.20684,113.91263 C139.20684,113.91263 146.927246,134.87234 142.771525,144.188773 L141.880354,157 C141.880354,157 135.051118,153.215482 127.921748,154.378904 L129.717943,143.917157 L121.683548,114.215935 L108.320596,82.4821186 L107,57 Z" id="Shape" fill="#000000" fill-rule="nonzero" opacity="0.1"></path>
                <path d="M107,57 C107,57 116.054855,61.5269353 119.324022,60.9293798 C122.59319,60.3318244 131.20015,65.8773201 130.609114,76.9411498 L135.974612,93.4463558 C138.120955,100.064477 139.21123,106.968033 139.20684,113.91263 C139.20684,113.91263 146.927246,134.87234 142.771525,144.188773 L141.880354,157 C141.880354,157 135.051118,153.215482 127.921748,154.378904 L129.70409,143.899049 L121.683548,114.206881 L108.334448,82.4730647 L107,57 Z" id="Shape" fill="#67647E" fill-rule="nonzero"></path>
                <path d="M122.206204,91.9796977 L122.206204,124.990693 L126.724057,140.767105 C126.724057,140.767105 129.734399,158.001688 128.830828,163.262006 C127.927257,168.522325 113.474809,169.68977 109.560897,165.306171 C105.646985,160.922573 107.753756,123.514351 107.753756,123.514351 L107,68.7534394 L107.603941,67 L122.206204,91.9796977 Z" id="Shape" fill="#000000" fill-rule="nonzero" opacity="0.1"></path>
                <path d="M122.206204,90.1789679 L122.206204,123.103432 L126.724057,138.83849 C126.724057,138.83849 129.734399,156.027896 128.830828,161.274426 C127.927257,166.520955 113.474809,167.685341 109.560897,163.313233 C105.646985,158.941125 107.753756,121.630961 107.753756,121.630961 L107,67 L122.206204,90.1789679 Z" id="Shape" fill="#67647E" fill-rule="nonzero"></path>
                <path d="M63,117.404573 L72.2965773,146.403647 L67.937395,158.787157 C67.937395,158.787157 88.5633289,180.640678 101.636358,170.151169 C101.636358,170.151169 103.090925,125.565093 100.181792,115.075585 C97.2726588,104.586076 83.3323102,69.3114213 83.3323102,69.3114213 L80.4457636,60 L65.0508484,68.7405021 L63,117.404573 Z" id="Shape" fill="#000000" fill-rule="nonzero" opacity="0.1"></path>
                <path d="M61.7821102,115.424852 L61.7821102,143.967381 C61.7821102,143.967381 62.368096,150.088168 60.3194172,154.165672 C58.2707384,158.243177 66.7470901,156.788867 66.7470901,156.788867 C66.7470901,156.788867 87.4882593,178.639759 100.634327,168.151512 C100.634327,168.151512 102.09702,123.570799 99.1716337,113.082552 C96.2462476,102.594305 82.2280154,67.323893 82.2280154,67.323893 L79.3071718,58 L63.8262465,66.7394508 L61.7821102,115.424852 Z" id="Shape" fill="#67647E" fill-rule="nonzero"></path>
                <path d="M85.5495854,54 C85.5495854,54 76.4437804,60.6303807 65.991375,59.1549262 C55.5389695,57.6794718 49.5674931,103.358991 49.5674931,103.358991 C49.5674931,103.358991 45.6855691,126.934187 58.227527,124.872217 L86,115.735396 C86,115.735396 80.0285236,109.544903 80.9247094,101.590279 L67.4819223,106.891834 L68.0855708,81.5525079 L85.5495854,54 Z" id="Shape" fill="#000000" fill-rule="nonzero" opacity="0.1"></path>
                <path d="M50.5674931,101.813311 C50.5674931,101.813311 46.6855691,125.982958 59.227527,123.868995 L87,114.501788 C87,114.501788 81.0285236,108.159898 81.9247094,100 L68.4912092,105.439932 L50.5674931,101.813311 Z" id="Shape" fill="#000000" fill-rule="nonzero" opacity="0.1"></path>
                <path d="M80,102.853971 C80,102.853971 89.0102484,90.776672 95.6455982,96.5750568 C102.280948,102.373442 82.379388,113 82.379388,113 L80,102.853971 Z" id="Shape" fill="#A1616A" fill-rule="nonzero"></path>
                <path d="M85.5495854,53 C85.5495854,53 76.4437804,59.6303807 65.991375,58.1549262 C55.5389695,56.6794718 49.5674931,102.358991 49.5674931,102.358991 C49.5674931,102.358991 45.6855691,125.934187 58.227527,123.872217 L86,114.735396 C86,114.735396 80.0285236,108.544903 80.9247094,100.590279 L67.4819223,105.896416 L68.0855708,80.5525079 L83.316086,68.180685 L85.5495854,53 Z" id="Shape" fill="#67647E" fill-rule="nonzero"></path>
                <path d="M102.709156,48.7542582 L86.1445898,45 C86.1445898,45 87.00761,45.901022 86,49.4258533 C88.665874,52.2498897 91.941736,55.9999765 96.3155767,55.9999765 C99.445614,56.0053937 102.493037,55.0729711 105,53.342796 C104.064483,51.8915435 103.296657,50.3535948 102.709156,48.7542582 Z" id="Shape" fill="#000000" fill-rule="nonzero" opacity="0.1"></path>
                <circle id="Oval" fill="#A1616A" fill-rule="nonzero" cx="95.5" cy="42.5" r="14.5"></circle>
                <path d="M102.294452,36.9958342 C105.734681,36.4105594 109.516167,34.8851581 110.669059,31.5947156 C111.406909,29.488648 110.844298,27.0922473 109.640679,25.2166029 C108.43706,23.3409585 106.666218,21.8985096 104.840037,20.60814 C101.874799,18.5251147 98.6051981,16.7370311 95.0358449,16.1102802 C94.4204186,15.9632399 93.7789748,15.9632399 93.1635485,16.1102802 C92.6283519,16.3291956 92.1194315,16.6074449 91.6463428,16.9398035 C89.2068236,18.3453847 86.1724122,17.7370676 83.3455214,17.5895968 C80.5186305,17.4421259 77.1291284,18.23939 76.2390959,20.9076901 C75.9624018,21.7326049 75.9808481,22.6220383 75.7779391,23.4699955 C75.3167824,25.5438038 73.753461,27.1567658 72.5498419,28.8849394 C71.3462228,30.613113 70.4192977,32.9496037 71.4338426,34.8114227 C71.7797101,35.4427822 72.3561561,36.0234485 72.3561561,36.7423687 C72.2671625,37.2533437 72.1121475,37.750607 71.8949993,38.2216853 C71.4753467,39.751695 72.6974121,41.2955301 74.1085517,42.0236672 C75.5196913,42.7518044 77.1429631,42.9776191 78.5817722,43.6550631 C81.3319128,45.0112394 83.0382373,47.8453964 82.9489266,50.9087838 C84.2586117,51.060863 85.7850405,51.1392069 86.6704615,50.1622128 C87.0670563,49.7244088 87.2607421,49.139134 87.6204444,48.6736792 C88.0816011,48.0653621 88.8010057,47.705902 89.3912863,47.217405 C92.4948712,44.668925 90.290542,41.1480593 92.0475492,38.4014154 C92.9698627,36.9866172 94.4363411,37.4198128 95.9212659,37.4428551 C98.0549615,37.4927451 100.18865,37.3430863 102.294452,36.9958342 Z" id="Shape" fill="#000000" fill-rule="nonzero" opacity="0.1"></path>
                <path d="M102.294452,35.9847819 C105.734681,35.3998152 109.516167,33.8752169 110.669059,30.5865065 C111.406909,28.4815476 110.844298,26.0864083 109.640679,24.2117513 C108.43706,22.3370942 106.666218,20.8954046 104.840037,19.6057142 C101.874799,17.5237855 98.6051981,15.7366431 95.0358449,15.1102221 C94.4204186,14.9632593 93.7789748,14.9632593 93.1635485,15.1102221 C92.6283519,15.3290224 92.1194315,15.6071251 91.6463428,15.9393088 C89.2068236,17.3441501 86.1724122,16.7361532 83.3455214,16.58876 C80.5186305,16.4413668 77.1291284,17.2382112 76.2390959,19.9051066 C75.9624018,20.7295873 75.9808481,21.6185524 75.7779391,22.4660632 C75.3167824,24.5387799 73.753461,26.1508928 72.5498419,27.8781567 C71.3462228,29.6054206 70.4192977,31.9406814 71.4338426,33.8015203 C71.7797101,34.4325474 72.3561561,35.0129081 72.3561561,35.7314498 C72.2671625,36.2421559 72.1121475,36.7391573 71.8949993,37.2099877 C71.4753467,38.739192 72.6974121,40.2822144 74.1085517,41.0099683 C75.5196913,41.7377221 77.1429631,41.9634179 78.5817722,42.6405054 C81.3435083,43.994776 83.0568602,46.8373306 82.9627613,49.9088318 C84.2724464,50.060831 85.7988752,50.1391336 86.6842962,49.1626538 C87.080891,48.7250803 87.2745768,48.1401136 87.6342791,47.6749038 C88.0954359,47.0669069 88.8148404,46.7076361 89.405121,46.2193961 C92.5087059,43.6722577 90.3043767,40.1532454 92.0613839,37.4080473 C92.9836974,35.9939939 94.4501758,36.4269614 95.9351006,36.4499916 C98.0647596,36.4929067 100.19378,36.3371611 102.294452,35.9847819 Z" id="Shape" fill="#4A4347" fill-rule="nonzero"></path>
                <path d="M119,85 C119,85 123.512766,101.943087 121.46383,108.482768 C120.211963,112.287127 120.397163,116.265314 122,120" id="Shape" fill="#000000" fill-rule="nonzero" opacity="0.1"></path>
                <path d="M67.6180885,91 C67.6180885,91 65.5418506,101.741041 69,104" id="Shape" fill="#000000" fill-rule="nonzero" opacity="0.1"></path>
                <path d="M149,229 C149.552285,229 150,228.552285 150,228 C150,227.447715 149.552285,227 149,227 C148.447715,227 148,227.447715 148,228 C148,228.552285 148.447715,229 149,229 Z" id="Shape" fill="#000000" fill-rule="nonzero"></path>
                <g id="Group" opacity="0.5" transform="translate(110.000000, 53.000000)" fill="url(#linearGradient-2)" fill-rule="nonzero">
                    <path d="M248.54562,96.1232775 L248.54562,95.7461453 L124.572701,0.418026071 C124.412076,0.299116252 124.192614,0.299116252 124.031989,0.418026071 L0.0545255474,95.7461453 L0.0545255474,243.509274 L0.29080292,243.509274 L0.29080292,243.745549 L248.786442,243.745549 L248.786442,95.9824209 L248.54562,96.1232775 Z" id="Shape"></path>
                </g>
                <polygon id="Shape" fill="#FFFFFF" fill-rule="nonzero" points="355 292 114 292 114 149.272727 234.5 57 355 149.272727"></polygon>
                <polygon id="Shape" fill="#E0E0E0" fill-rule="nonzero" points="346 284 123 284 123 151.597907 234.5 66 346 151.597907"></polygon>
                <polygon id="Rectangle-path" fill="#CF2B66" fill-rule="nonzero" transform="translate(227.000000, 167.000000) rotate(-14.690000) translate(-227.000000, -167.000000) " points="157 78 297 78 297 256 157 256"></polygon>
                <polygon id="Rectangle-path" fill="#F5F5F5" fill-rule="nonzero" points="165 91 305 91 305 269 165 269"></polygon>
                <polygon id="Shape" fill="#000000" fill-rule="nonzero" opacity="0.05" points="115 150 235 221 115 292"></polygon>
                <polygon id="Shape" fill="#FFFFFF" fill-rule="nonzero" points="114 150 234 221 114 292"></polygon>
                <polygon id="Shape" fill="#000000" fill-rule="nonzero" opacity="0.05" points="354 150 234 221 354 292"></polygon>
                <polygon id="Shape" fill="#FFFFFF" fill-rule="nonzero" points="355 150 235 221 355 292"></polygon>
                <polygon id="Shape" fill="#000000" fill-rule="nonzero" opacity="0.05" points="114 290 234.5 197 355 290"></polygon>
                <polygon id="Shape" fill="#FFFFFF" fill-rule="nonzero" points="114 292 234.5 199 355 292"></polygon>
                <path d="M139.470747,304 C139.470747,304 133.193839,283.640844 140.649443,268.647456 C143.817302,262.380073 144.772401,255.299632 143.371329,248.46927 C142.68029,245.232297 141.680454,242.06263 140.384354,239" id="Shape" stroke="#535461" stroke-width="2"></path>
                <path d="M144,228.443034 C144,230.895589 139.5,238 139.5,238 C139.5,238 135,230.891146 135,228.443034 C135,225.989214 137.014719,224 139.5,224 C141.985281,224 144,225.989214 144,228.443034 Z" id="Shape" fill="#CF2B66" fill-rule="nonzero"></path>
                <path d="M151.361743,242.524385 C149.963076,244.531677 142,248 142,248 C142,248 142.144529,239.823429 143.543196,237.816137 C144.991733,235.930046 147.779356,235.436959 149.871414,236.696774 C151.963472,237.95659 152.619972,240.523692 151.361743,242.524385 Z" id="Shape" fill="#CF2B66" fill-rule="nonzero"></path>
                <path d="M151.415764,265.408187 C149.250023,266.499759 141,265.747102 141,265.747102 C141,265.747102 145.300731,258.651884 147.462079,257.560311 C148.870962,256.770545 150.598671,256.818673 151.961581,257.685653 C153.324492,258.552633 154.102976,260.098753 153.989002,261.712243 C153.875028,263.325732 152.886962,264.746582 151.415764,265.412588 L151.415764,265.408187 Z" id="Shape" fill="#CF2B66" fill-rule="nonzero"></path>
                <path d="M147.363334,283.884645 C145.38342,285.342285 137,286 137,286 C137,286 140.085812,278.205185 142.065726,276.747545 C144.044438,275.431935 146.710978,275.895706 148.125569,277.801486 C149.54016,279.707266 149.20475,282.384067 147.363334,283.884645 Z" id="Shape" fill="#CF2B66" fill-rule="nonzero"></path>
                <path d="M133.184781,247.506924 C134.938281,249.220004 143,251 143,251 C143,251 141.022928,242.831646 139.286963,241.118567 C137.532982,239.540882 134.870403,239.643992 133.239315,241.352766 C131.608227,243.06154 131.584218,245.772976 133.184781,247.511386 L133.184781,247.506924 Z" id="Shape" fill="#CF2B66" fill-rule="nonzero"></path>
                <path d="M128.308401,269.396861 C130.531496,270.509323 139,269.742262 139,269.742262 C139,269.742262 134.585375,262.511255 132.36679,261.398792 C130.165746,260.409517 127.571968,261.321073 126.484093,263.466205 C125.396218,265.611337 126.200585,268.228239 128.308401,269.401346 L128.308401,269.396861 Z" id="Shape" fill="#CF2B66" fill-rule="nonzero"></path>
                <path d="M126.928595,289.937494 C128.852736,291.358717 137,292 137,292 C137,292 134.001114,284.399926 132.076973,282.978703 C130.839522,281.966993 129.145534,281.718525 127.669599,282.332246 C126.193664,282.945967 125.175466,284.322212 125.020478,285.912924 C124.86549,287.503636 125.598881,289.050492 126.928595,289.937494 Z" id="Shape" fill="#CF2B66" fill-rule="nonzero"></path>
                <polygon id="Rectangle-path" fill="#CF2B66" fill-rule="nonzero" opacity="0.5" points="174 98 231 98 231 102 174 102"></polygon>
                <polygon id="Rectangle-path" fill="#CF2B66" fill-rule="nonzero" opacity="0.5" points="174 117 296 117 296 121 174 121"></polygon>
                <polygon id="Rectangle-path" fill="#CF2B66" fill-rule="nonzero" opacity="0.5" points="174 128 296 128 296 132 174 132"></polygon>
                <polygon id="Rectangle-path" fill="#CF2B66" fill-rule="nonzero" opacity="0.4" points="174 140 296 140 296 144 174 144"></polygon>
                <polygon id="Rectangle-path" fill="#CF2B66" fill-rule="nonzero" opacity="0.4" points="174 152 296 152 296 156 174 156"></polygon>
                <polygon id="Rectangle-path" fill="#CF2B66" fill-rule="nonzero" opacity="0.3" points="174 164 244 164 244 168 174 168"></polygon>
                <polygon id="Rectangle-path" fill="#CF2B66" fill-rule="nonzero" opacity="0.3" points="174 175 269 175 269 179 174 179"></polygon>
            </g>
        </g>
    </g>
</svg>