<?xml version="1.0" encoding="UTF-8"?>
<svg width="480px" height="400px" viewBox="0 0 480 400" version="1.1" xmlns="http://www.w3.org/2000/svg" xmlns:xlink="http://www.w3.org/1999/xlink">
    <!-- Generator: Sketch 52.2 (67145) - http://www.bohemiancoding.com/sketch -->
    <title>undraw_To_the_stars_qhyy</title>
    <desc>Created with Sketch.</desc>
    <defs>
        <linearGradient x1="50.0017673%" y1="100%" x2="50.0017673%" y2="0.00481706169%" id="linearGradient-1">
            <stop stop-color="#808080" stop-opacity="0.25" offset="0%"></stop>
            <stop stop-color="#808080" stop-opacity="0.12" offset="54%"></stop>
            <stop stop-color="#808080" stop-opacity="0.1" offset="100%"></stop>
        </linearGradient>
        <linearGradient x1="49.9783268%" y1="0%" x2="49.9783268%" y2="100.015969%" id="linearGradient-2">
            <stop stop-color="#E0E0E0" offset="0%"></stop>
            <stop stop-color="#FCCC63" offset="31%"></stop>
            <stop stop-color="#F55F44" offset="77%"></stop>
        </linearGradient>
        <linearGradient x1="50.0216732%" y1="0%" x2="50.0216732%" y2="100.015969%" id="linearGradient-3">
            <stop stop-color="#E0E0E0" offset="0%"></stop>
            <stop stop-color="#FCCC63" offset="31%"></stop>
            <stop stop-color="#F55F44" offset="77%"></stop>
        </linearGradient>
        <linearGradient x1="50.0017854%" y1="100.026706%" x2="50.0017854%" y2="0.0090971242%" id="linearGradient-4">
            <stop stop-color="#808080" stop-opacity="0.25" offset="0%"></stop>
            <stop stop-color="#808080" stop-opacity="0.12" offset="54%"></stop>
            <stop stop-color="#808080" stop-opacity="0.1" offset="100%"></stop>
        </linearGradient>
        <linearGradient x1="50%" y1="0%" x2="50%" y2="100%" id="linearGradient-5">
            <stop stop-color="#F2F2F2" offset="0%"></stop>
            <stop stop-color="#E6E6E6" offset="31%"></stop>
            <stop stop-color="#CCCCCC" offset="77%"></stop>
        </linearGradient>
        <linearGradient x1="50.0261588%" y1="0.0667535267%" x2="50.0261588%" y2="100%" id="linearGradient-6">
            <stop stop-color="#F2F2F2" offset="0%"></stop>
            <stop stop-color="#E6E6E6" offset="31%"></stop>
            <stop stop-color="#CCCCCC" offset="77%"></stop>
        </linearGradient>
        <linearGradient x1="50.0018333%" y1="-0.0532481363%" x2="50.0018333%" y2="100.01065%" id="linearGradient-7">
            <stop stop-color="#F2F2F2" offset="0%"></stop>
            <stop stop-color="#E6E6E6" offset="31%"></stop>
            <stop stop-color="#CCCCCC" offset="77%"></stop>
        </linearGradient>
        <linearGradient x1="49.996574%" y1="-0.0251984377%" x2="49.996574%" y2="100%" id="linearGradient-8">
            <stop stop-color="#F2F2F2" offset="0%"></stop>
            <stop stop-color="#E6E6E6" offset="31%"></stop>
            <stop stop-color="#CCCCCC" offset="77%"></stop>
        </linearGradient>
        <linearGradient x1="49.9893736%" y1="-0.0106450926%" x2="49.9893736%" y2="100.010645%" id="linearGradient-9">
            <stop stop-color="#F2F2F2" offset="0%"></stop>
            <stop stop-color="#E6E6E6" offset="31%"></stop>
            <stop stop-color="#CCCCCC" offset="77%"></stop>
        </linearGradient>
        <linearGradient x1="49.9919034%" y1="0.0388432241%" x2="49.9919034%" y2="100%" id="linearGradient-10">
            <stop stop-color="#F2F2F2" offset="0%"></stop>
            <stop stop-color="#E6E6E6" offset="31%"></stop>
            <stop stop-color="#CCCCCC" offset="77%"></stop>
        </linearGradient>
        <linearGradient x1="50%" y1="100%" x2="50%" y2="0%" id="linearGradient-11">
            <stop stop-color="#808080" stop-opacity="0.25" offset="0%"></stop>
            <stop stop-color="#808080" stop-opacity="0.12" offset="54%"></stop>
            <stop stop-color="#808080" stop-opacity="0.1" offset="100%"></stop>
        </linearGradient>
        <linearGradient x1="50%" y1="100%" x2="50%" y2="0.0343170899%" id="linearGradient-12">
            <stop stop-color="#808080" stop-opacity="0.25" offset="0%"></stop>
            <stop stop-color="#808080" stop-opacity="0.12" offset="54%"></stop>
            <stop stop-color="#808080" stop-opacity="0.1" offset="100%"></stop>
        </linearGradient>
        <linearGradient x1="50%" y1="4.10718344e-13%" x2="50%" y2="100%" id="linearGradient-13">
            <stop stop-color="#F2F2F2" offset="0%"></stop>
            <stop stop-color="#E0E0E0" offset="31%"></stop>
            <stop stop-color="#B3B3B3" offset="77%"></stop>
        </linearGradient>
        <linearGradient x1="50%" y1="0%" x2="50%" y2="100.032701%" id="linearGradient-14">
            <stop stop-color="#F2F2F2" offset="0%"></stop>
            <stop stop-color="#E6E6E6" offset="31%"></stop>
            <stop stop-color="#CCCCCC" offset="77%"></stop>
        </linearGradient>
        <linearGradient x1="49.9540293%" y1="99.9430785%" x2="49.9540293%" y2="-0.0566800544%" id="linearGradient-15">
            <stop stop-color="#808080" stop-opacity="0.25" offset="0%"></stop>
            <stop stop-color="#808080" stop-opacity="0.12" offset="54%"></stop>
            <stop stop-color="#808080" stop-opacity="0.1" offset="100%"></stop>
        </linearGradient>
        <linearGradient x1="50.0721261%" y1="100.095365%" x2="50.0721261%" y2="0.0957582806%" id="linearGradient-16">
            <stop stop-color="#808080" stop-opacity="0.25" offset="0%"></stop>
            <stop stop-color="#808080" stop-opacity="0.12" offset="54%"></stop>
            <stop stop-color="#808080" stop-opacity="0.1" offset="100%"></stop>
        </linearGradient>
    </defs>
    <g id="Symbols" stroke="none" stroke-width="1" fill="none" fill-rule="evenodd">
        <g id="Streaks-/-Streak-create-shop" transform="translate(-300.000000, 0.000000)" fill-rule="nonzero">
            <g id="undraw_To_the_stars_qhyy" transform="translate(300.000000, 0.000000)">
                <g id="Group" opacity="0.7" transform="translate(156.000000, 25.000000)" fill="url(#linearGradient-1)">
                    <path d="M146.787782,154.622952 C146.829451,142.00732 143.809946,129.570013 137.988486,118.378748 C135.224472,113.123338 132.703732,109.856182 130.742007,107.852396 C129.22558,106.243493 126.855099,105.775483 124.841303,106.687403 C124.056192,106.964529 123.347043,107.422079 122.77088,108.023261 C120.14662,110.741577 117.775986,114.33493 115.705563,118.161283 C109.58108,129.613962 106.40234,142.41136 106.455951,155.399614 L106.455951,163.197295 L101.45588,163.197295 L101.45588,72.5867852 C101.45588,53.5948223 97.206338,34.8565688 88.8832394,18.2204791 C84.9390845,10.3451314 81.3417254,5.45216383 78.5725352,2.4438949 C77.2153259,0.896786568 75.2574578,0.00977572584 73.1997887,0.00977572584 C71.1421197,0.00977572584 69.1842516,0.896786568 67.8270423,2.4438949 C64.0795775,6.51877898 60.6996127,11.9036321 57.7440845,17.6302164 C48.9913732,34.6080371 44.5451408,53.8744204 44.5451408,73.4307573 L44.5451408,163.197295 L40.2231338,163.197295 L40.2231338,155.026816 C40.2767441,142.038562 37.098004,129.241165 30.9735211,117.788485 C28.9030986,113.967311 26.5324648,110.373957 23.9082042,107.650464 C22.35832,106.017488 19.9310756,105.573744 17.9039789,106.552782 L18.0851408,106.651159 C17.4513957,106.931356 16.8782635,107.332327 16.3977465,107.831685 C14.4567254,109.835471 11.9359859,113.102628 9.15126761,118.358037 C3.32980758,129.549302 0.310302967,141.986609 0.351971831,154.602241 L0.351971831,290.07272 L15.7766197,290.07272 L14.0944014,301.210046 L14.0944014,334.508114 L26.7032746,334.508114 L26.7032746,301.210046 L25.0210563,290.07272 L40.2231338,290.07272 L40.2231338,166.702628 L44.5451408,166.702628 L44.5451408,289.518702 L56.8641549,289.518702 L55.0939437,301.204869 L55.0939437,334.508114 L67.707993,334.508114 L67.707993,301.210046 L65.9377817,289.523879 L82.5373944,289.523879 L80.7671831,301.210046 L80.7671831,334.508114 L93.3812324,334.508114 L93.3812324,301.210046 L91.6110211,289.523879 L101.445528,289.523879 L101.445528,166.702628 L106.445599,166.702628 L106.445599,290.259119 L110.498451,290.259119 L110.498451,290.07272 L123.899261,290.07272 L122.217042,301.210046 L122.217042,334.508114 L134.831092,334.508114 L134.831092,301.210046 L133.148873,290.07272 L146.787782,290.07272 L146.787782,154.622952 Z" id="Shape"></path>
                </g>
                <polygon id="Shape" fill="#535461" points="186 320 174 320 176.143043 306 183.856957 306"></polygon>
                <g id="Group" opacity="0.1" transform="translate(175.000000, 307.000000)" fill="#000000">
                    <polygon id="Shape" points="0.188888889 3.69333333 9.70555556 3.69333333 9.06666667 0.213333333 0.827777778 0.213333333"></polygon>
                </g>
                <polygon id="Shape" fill="#535461" points="288 320 276 320 278.143043 306 285.856957 306"></polygon>
                <g id="Group" opacity="0.1" transform="translate(277.000000, 307.000000)" fill="#000000">
                    <polygon id="Shape" points="0.0555555556 3.69333333 9.57222222 3.69333333 8.93333333 0.213333333 0.694444444 0.213333333"></polygon>
                </g>
                <polygon id="Shape" fill="#535461" points="224 320 212 320 214.142114 306 221.857886 306"></polygon>
                <g id="Group" opacity="0.1" transform="translate(214.000000, 307.000000)" fill="#000000">
                    <polygon id="Shape" points="0.177777778 3.69333333 9.7 3.69333333 9.06111111 0.213333333 0.816666667 0.213333333"></polygon>
                </g>
                <polygon id="Shape" fill="#535461" points="248 320 236 320 238.143043 306 245.856957 306"></polygon>
                <g id="Group" opacity="0.1" transform="translate(238.000000, 307.000000)" fill="#000000">
                    <polygon id="Shape" points="0.161111111 3.69333333 9.68333333 3.69333333 9.03888889 0.213333333 0.8 0.213333333"></polygon>
                </g>
                <polygon id="Rectangle-path" fill="#535461" points="186 185 271 185 271 188 186 188"></polygon>
                <path d="M283.717634,131.580313 C282.800065,130.574017 281.497055,130 280.13035,130 C278.763644,130 277.460634,130.574017 276.543065,131.580313 C274.042126,134.225432 271.78607,137.72465 269.81137,141.446452 C263.967872,152.638888 260.944553,165.072604 261.00077,177.680962 L261.00077,309 L298.999415,309 L298.999415,177.137444 C299.047171,164.874747 296.170734,152.775177 290.605638,141.829503 C287.969231,136.715261 285.567287,133.5318 283.717634,131.580313 Z" id="Shape" fill="#E0E0E0"></path>
                <path d="M176.288594,131.580313 C177.205911,130.574017 178.508564,130 179.874895,130 C181.241226,130 182.543878,130.574017 183.461196,131.580313 C185.96145,134.225432 188.216887,137.72465 190.191045,141.446452 C196.032942,152.638888 199.055432,165.072604 198.99923,177.680962 L198.99923,309 L161.000585,309 L161.000585,177.137444 C160.952842,164.874747 163.828491,152.775177 169.392061,141.829503 C172.022536,136.715261 174.423821,133.5318 176.288594,131.580313 Z" id="Shape" fill="#E0E0E0"></path>
                <polygon id="Shape" fill="#535461" points="161 180 170 180.041083 170 191 161 191"></polygon>
                <polygon id="Shape" fill="#535461" points="189 180 198 180.041083 198 191 189 191"></polygon>
                <polygon id="Shape" fill="#535461" points="261 180 270 180.041083 270 191 261 191"></polygon>
                <polygon id="Shape" fill="#535461" points="290 180 299 180.041083 299 191 290 191"></polygon>
                <g id="Group" opacity="0.1" transform="translate(177.000000, 129.000000)" fill="#000000">
                    <path d="M12.702381,11.5056647 C10.722381,7.78598266 8.44904762,4.28875723 5.9347619,1.64514451 C4.4746093,0.0523917402 2.11932264,-0.38535707 0.172857143,0.574248555 C0.718644668,0.843211279 1.21170436,1.20581194 1.62904762,1.64514451 C4.14333333,4.28875723 6.41142857,7.78598266 8.39666667,11.5056647 C14.2713492,22.6917265 17.3108031,35.118361 17.2542857,47.7195376 L17.2542857,178.953439 L21.5704762,178.953439 L21.5704762,47.7350578 C21.6263026,35.1277763 18.5831696,22.6954717 12.702381,11.5056647 Z" id="Shape"></path>
                </g>
                <g id="Group" opacity="0.1" transform="translate(261.000000, 129.000000)" fill="#000000">
                    <path d="M13.1946341,11.8997118 C15.2229268,8.17002882 17.5517073,4.66340058 20.1273171,2.01268012 C20.6096448,1.51099643 21.1918657,1.10870931 21.8390244,0.829971182 C19.8774046,-0.00052555768 17.5861302,0.475916717 16.1512195,2.01268012 C13.5756098,4.66340058 11.2521951,8.17002882 9.21853659,11.8997118 C3.20056909,23.1158489 0.0869822237,35.5758943 0.144878049,48.210951 L0.144878049,179.797695 L4.12634146,179.797695 L4.12634146,48.2317003 C4.0633126,35.5900644 7.1751512,23.1225263 13.1946341,11.8997118 Z" id="Shape"></path>
                </g>
                <polygon id="Rectangle-path" fill="url(#linearGradient-2)" points="174 320 186 320 186 352 174 352"></polygon>
                <polygon id="Rectangle-path" fill="url(#linearGradient-3)" points="212 320 224 320 224 352 212 352"></polygon>
                <polygon id="Rectangle-path" fill="url(#linearGradient-3)" points="236 320 248 320 248 352 236 352"></polygon>
                <polygon id="Rectangle-path" fill="url(#linearGradient-3)" points="276 320 288 320 288 352 276 352"></polygon>
                <path d="M234.283793,28.3656765 C233.018139,26.8658276 231.152647,26 229.186761,26 C227.220875,26 225.355384,26.8658276 224.08973,28.3656765 C220.536075,32.3278654 217.345566,37.5676791 214.523393,43.1437099 C206.222884,59.6648995 202,78.4154668 202,97.4298353 L202,308 L256,308 L256,96.5815337 C256,78.1051126 251.969065,59.8562846 244.068018,43.7126926 C240.327601,36.052116 236.914017,31.2933513 234.283793,28.3656765 Z" id="Shape" fill="#EEEEEE"></path>
                <path d="M221.5,52 L236.5,52 C240.089851,52 243,54.9101491 243,58.5 L243,58.5 C243,62.0898509 240.089851,65 236.5,65 L221.5,65 C217.910149,65 215,62.0898509 215,58.5 L215,58.5 C215,54.9101491 217.910149,52 221.5,52 Z" id="Rectangle-path" fill="#5FB881"></path>
                <g id="Group" opacity="0.7" transform="translate(70.000000, 302.000000)" fill="url(#linearGradient-4)">
                    <path d="M284.553187,47.1748148 C280.879006,25.0295981 260.795056,9.42671521 238.420817,11.3353512 C216.046577,13.2439872 198.897624,32.0230253 199.030065,54.4703704 C199.030065,54.682963 199.030065,54.8903704 199.030065,55.102963 C197.437634,55.344066 195.861338,55.6817259 194.309902,56.1140741 C190.23746,39.9012898 176.356883,28.0340418 159.70308,26.5268489 C143.049277,25.019656 127.262359,34.2019534 120.343398,49.42 C116.86388,48.0781439 113.20942,47.243429 109.492211,46.9414815 C108.899517,43.5767775 107.905155,40.2953057 106.530439,37.1674074 C105.192366,16.6994512 88.3339989,0.701661979 67.817032,0.430224437 C47.300065,0.158786894 30.0240828,15.7049819 28.1446179,36.1303704 C26.107953,40.4417198 24.8070858,45.0632724 24.2958699,49.8037037 C5.64399069,57.5612887 -4.1040213,78.1753317 1.73764228,97.5074074 L316.888894,97.5074074 C320.213467,86.4913684 318.546143,74.5724872 312.326168,64.8906978 C306.106192,55.2089084 295.957318,48.7351253 284.553187,47.1748148 Z" id="Shape"></path>
                </g>
                <ellipse id="Oval" fill="url(#linearGradient-5)" cx="142" cy="343.5" rx="38" ry="37.5"></ellipse>
                <circle id="Oval" fill="url(#linearGradient-5)" cx="141.5" cy="358.5" r="41.5"></circle>
                <circle id="Oval" fill="url(#linearGradient-5)" cx="309.5" cy="358.5" r="41.5"></circle>
                <ellipse id="Oval" fill="url(#linearGradient-5)" cx="308" cy="362.5" rx="38" ry="37.5"></ellipse>
                <path d="M264.99998,369.587182 C265.012434,381.630671 259.168319,392.946195 249.292708,400 L204.741838,400 C190.189806,389.603638 184.986593,370.557437 192.266318,354.333744 C199.546043,338.11005 217.321347,329.13792 234.8854,332.821653 C252.449453,336.505386 265.007281,351.839326 264.994765,369.587182 L264.99998,369.587182 Z" id="Shape" fill="url(#linearGradient-6)"></path>
                <path d="M216.999977,388.978914 C217.004108,392.712824 216.455549,396.426777 215.372137,400 L142.625432,400 C139.157797,388.525257 141.306241,376.086791 148.421991,366.44069 C155.537742,356.794589 166.786643,351.071632 178.771826,351 L179.006611,351 C180.070968,351 181.126629,351.043486 182.173594,351.130458 C185.764215,351.422546 189.294236,352.229193 192.655422,353.525666 C207.316682,359.175065 216.991466,373.264563 216.999977,388.978914 Z" id="Shape" fill="url(#linearGradient-7)"></path>
                <path d="M312,396.611314 C312,397.737432 311.949566,398.851497 311.848699,399.953509 C311.852675,399.968756 311.852675,399.984753 311.848699,400 L236.156528,400 C236.052183,398.884213 236.00001,397.752929 236.00001,396.61648 C235.986576,378.010871 249.723635,362.1955 268.305353,359.423586 C270.184329,359.143851 272.081648,359.002269 273.981744,359 C274.952157,359 275.917352,359.03616 276.872113,359.103314 C290.744842,360.153756 302.930774,368.62135 308.645294,381.181429 C308.801813,381.522364 308.953113,381.868464 309.09398,382.214565 C311.012755,386.77657 312.000413,391.669539 312,396.611314 Z" id="Shape" fill="url(#linearGradient-8)"></path>
                <path d="M382.999977,388.983607 C383.004109,392.715927 382.455413,396.428298 381.371731,400 L308.622554,400 C308.622554,400 308.622554,400 308.622554,400 C306.86369,394.158383 306.529069,387.980876 307.646651,381.983607 C307.709275,381.654993 307.7719,381.321162 307.844963,380.997765 C311.618615,363.496707 327.100858,351.001154 345.012799,351 C346.207889,351 347.382105,351.052161 348.545883,351.166915 C349.067757,351.208644 349.58963,351.271237 350.111504,351.339046 C368.950593,353.900961 382.998667,369.980564 382.999977,388.983607 Z" id="Shape" fill="url(#linearGradient-9)"></path>
                <path d="M151.364627,400 C151.489828,399.603815 151.599379,399.20763 151.708929,398.806232 C155.229441,385.648587 151.432363,371.614433 141.75661,362.022059 C132.080856,352.429684 118.006951,348.746854 104.868246,352.36919 C103.356833,352.783583 101.873917,353.295528 100.428841,353.9018 C82.4039517,361.395322 72.9849529,381.310201 78.6334991,399.984361 L151.364627,399.984361 L151.364627,400 Z" id="Shape" fill="url(#linearGradient-10)"></path>
                <g id="Group" opacity="0.7" transform="translate(361.000000, 305.000000)" fill="url(#linearGradient-11)">
                    <ellipse id="Oval" cx="6.9637037" cy="7.135" rx="6.92740741" ry="6.68"></ellipse>
                </g>
                <circle id="Oval" fill="url(#linearGradient-5)" cx="367.5" cy="312.5" r="6.5"></circle>
                <g id="Group" opacity="0.7" transform="translate(393.000000, 372.000000)" fill="url(#linearGradient-12)">
                    <circle id="Oval" cx="7.305" cy="7.59" r="7.285"></circle>
                </g>
                <circle id="Oval" fill="url(#linearGradient-13)" cx="400" cy="380" r="7"></circle>
                <g id="Group" opacity="0.7" transform="translate(68.000000, 329.000000)" fill="url(#linearGradient-11)">
                    <circle id="Oval" cx="8.33" cy="8.31969697" r="8.24757576"></circle>
                </g>
                <circle id="Oval" fill="url(#linearGradient-14)" cx="77" cy="337" r="8"></circle>
                <g id="Group" opacity="0.4" transform="translate(348.000000, 0.000000)" fill="url(#linearGradient-15)">
                    <path d="M40.9968539,8.93352273 C39.1626739,6.53554248 36.8645753,4.52259945 34.2364045,3.01193182 C25.9734359,-1.68600719 15.624333,-0.777390299 8.32663525,5.28672357 C1.02893753,11.3508374 -1.66334892,21.2791274 1.58629063,30.1429553 C4.83593017,39.0067833 13.3355022,44.918644 22.865618,44.94375 C23.3462921,44.94375 23.8269663,44.94375 24.3024719,44.8977273 C32.6380958,44.3774924 40.0112803,39.3695022 43.497358,31.8602395 C46.9834356,24.3509768 46.0189654,15.5541341 40.9865169,8.95909091 L40.9968539,8.93352273 Z" id="Shape"></path>
                </g>
                <path d="M391.999977,22.4949073 C392.000906,33.8407612 383.1829,43.2345318 371.856735,43.9533849 C371.405999,43.9844616 370.950082,44 370.494165,44 C361.456143,43.9946514 353.38585,38.3404799 350.296474,29.8491868 C347.207099,21.3578936 349.757932,11.8415722 356.680498,6.03249011 C363.603063,0.223407994 373.420044,-0.638741517 381.249661,3.87477049 C383.741228,5.32134237 385.919814,7.24931084 387.658404,9.54627253 C390.481916,13.2723016 392.006854,17.8203921 391.999977,22.4949073 Z" id="Shape" fill="#5FB881" opacity="0.2"></path>
                <path d="M365.21617,9.16367402 C364.115639,9.60001421 363.053567,10.114112 362.039499,10.7013468 C361.362299,11.04654 360.780974,11.5307989 360.340827,12.1163831 C359.901743,12.7162491 359.88568,13.4968878 360.299772,14.1115843 C360.812966,14.762501 361.839354,14.8662703 362.696388,14.9087214 C364.299986,15.2217399 365.962758,14.7171256 367.048273,13.5880208 L368.880375,12.0597816 C369.516736,11.5315014 370.214679,10.8003993 369.937555,10.0551469 C369.727145,9.48441558 369.029201,9.20612511 368.397973,9.11178935 C366.823315,8.82695087 365.189678,9.09092933 363.81515,9.85232502" id="Shape" fill="#F55F44" opacity="0.05"></path>
                <circle id="Oval" fill="#F55F44" opacity="0.05" cx="358" cy="31" r="1"></circle>
                <circle id="Oval" fill="#F55F44" opacity="0.05" cx="382.5" cy="24.5" r="4.5"></circle>
                <path d="M390,9.55946919 C389.951575,12.5045505 387.401832,14.8966558 384.204404,14.9967546 C381.006975,15.0968535 378.286622,12.8697341 378.021006,9.9344841 C377.755391,6.99923413 380.03795,4.38838894 383.209291,4 C385.851908,5.41896587 388.160523,7.3090006 390,9.55946919 Z" id="Shape" fill="#F55F44" opacity="0.05"></path>
                <path d="M388,34.9914192 C384.312943,40.2838633 378.440845,43.5985157 372.040777,44 C372.015291,43.7069126 372,43.4086833 372,43.1104541 C372.00138,39.2896573 374.137034,35.7957615 377.520631,34.07879 C380.904228,32.3618186 384.958168,32.7148688 388,34.9914192 Z" id="Shape" fill="#F55F44" opacity="0.05"></path>
                <circle id="Oval" fill="#535461" opacity="0.25" cx="374.5" cy="178.5" r="2.5"></circle>
                <circle id="Oval" fill="#535461" opacity="0.25" cx="21.5" cy="248.5" r="2.5"></circle>
                <circle id="Oval" fill="#535461" opacity="0.25" cx="477.5" cy="263.5" r="2.5"></circle>
                <circle id="Oval" fill="#535461" opacity="0.25" cx="149.5" cy="138.5" r="2.5"></circle>
                <circle id="Oval" fill="#535461" opacity="0.25" cx="140.5" cy="76.5" r="2.5"></circle>
                <circle id="Oval" fill="#535461" opacity="0.25" cx="66.5" cy="197.5" r="2.5"></circle>
                <polygon id="Shape" fill="#535461" opacity="0.25" points="440 200.074176 437.923147 200.074176 437.923147 198 437.076853 198 437.076853 200.074176 435 200.074176 435 200.925824 437.076853 200.925824 437.076853 203 437.923147 203 437.923147 200.925824 440 200.925824"></polygon>
                <polygon id="Shape" fill="#535461" opacity="0.25" points="479 120.074176 476.923147 120.074176 476.923147 118 476.076853 118 476.076853 120.074176 474 120.074176 474 120.925824 476.076853 120.925824 476.076853 123 476.923147 123 476.923147 120.925824 479 120.925824"></polygon>
                <polygon id="Shape" fill="#535461" opacity="0.25" points="311 73.0768527 308.923147 73.0768527 308.923147 71 308.076853 71 308.076853 73.0768527 306 73.0768527 306 73.9231473 308.076853 73.9231473 308.076853 76 308.923147 76 308.923147 73.9231473 311 73.9231473"></polygon>
                <polygon id="Shape" fill="#535461" opacity="0.25" points="414 187.074176 411.921245 187.074176 411.921245 185 411.074176 185 411.074176 187.074176 409 187.074176 409 187.925824 411.074176 187.925824 411.074176 190 411.921245 190 411.921245 187.925824 414 187.925824"></polygon>
                <polygon id="Shape" fill="#535461" opacity="0.25" points="328 265.074176 325.925824 265.074176 325.925824 263 325.078755 263 325.078755 265.074176 323 265.074176 323 265.925824 325.078755 265.925824 325.078755 268 325.925824 268 325.925824 265.925824 328 265.925824"></polygon>
                <polygon id="Shape" fill="#535461" opacity="0.25" points="87 104.074176 84.9231473 104.074176 84.9231473 102 84.0768527 102 84.0768527 104.074176 82 104.074176 82 104.921245 84.0768527 104.921245 84.0768527 107 84.9231473 107 84.9231473 104.921245 87 104.921245"></polygon>
                <polygon id="Shape" fill="#535461" opacity="0.25" points="5 135.074176 2.9231473 135.074176 2.9231473 133 2.0768527 133 2.0768527 135.074176 0 135.074176 0 135.921245 2.0768527 135.921245 2.0768527 138 2.9231473 138 2.9231473 135.921245 5 135.921245"></polygon>
                <polygon id="Shape" fill="#535461" opacity="0.25" points="119 231.076853 116.921245 231.076853 116.921245 229 116.074176 229 116.074176 231.076853 114 231.076853 114 231.923147 116.074176 231.923147 116.074176 234 116.921245 234 116.921245 231.923147 119 231.923147"></polygon>
                <circle id="Oval" fill="url(#linearGradient-5)" cx="400" cy="380" r="7"></circle>
                <g id="Group" opacity="0.4" transform="translate(120.000000, 176.000000)" fill="url(#linearGradient-16)">
                    <path d="M20.304186,4.98511628 C19.4003742,3.7895248 18.2675822,2.78583109 16.9718605,2.03255814 C12.898489,-0.33847568 7.7761093,0.097081228 4.16154154,3.12182197 C0.546973784,6.14656271 -0.784765396,11.1119382 0.831057531,15.5394966 C2.44688046,19.9670549 6.66380922,22.9074623 11.3769767,22.8930233 C11.6123256,22.8930233 11.8530233,22.8930233 12.0830233,22.8930233 C16.1894271,22.6303563 19.8203643,20.1351367 21.5375443,16.3957733 C23.2547244,12.6564098 22.7810625,8.27628765 20.304186,4.99046512 L20.304186,4.98511628 Z" id="Shape"></path>
                </g>
                <path d="M140.99991,187.020271 C140.999792,192.297518 136.896929,196.666335 131.627704,197 C131.42022,197 131.207675,197 130.99513,197 C126.791454,196.995736 123.038782,194.365443 121.602554,190.416629 C120.166326,186.467816 121.3529,182.042794 124.572433,179.341224 C127.791967,176.639655 132.357711,176.237804 136.000051,178.335429 C137.158299,179.008052 138.171441,179.903794 138.980736,180.970725 C140.299658,182.711173 141.009179,184.836936 140.99991,187.020271 Z" id="Shape" fill="#5FB881" opacity="0.2"></path>
                <path d="M128.103753,181.109595 C127.655056,181.325808 127.22189,181.582055 126.808256,181.87597 C126.5372,182.045469 126.303767,182.283985 126.125961,182.573125 C125.958013,182.874703 125.958013,183.260417 126.125961,183.561996 C126.379974,183.847375 126.730015,183.991802 127.084629,183.957544 C127.721636,184.106879 128.379879,183.856284 128.811959,183.299945 L129.546074,182.538514 C129.800855,182.271519 130.081546,181.910581 129.977906,181.549643 C129.860129,181.271934 129.624476,181.084562 129.356067,181.055207 C128.725309,180.913909 128.071198,181.046075 127.52078,181.426034" id="Shape" fill="#F55F44" opacity="0.1"></path>
                <circle id="Oval" fill="#F55F44" opacity="0.1" cx="124.5" cy="191.5" r="1"></circle>
                <circle id="Oval" fill="#F55F44" opacity="0.1" cx="136" cy="187" r="2"></circle>
                <path d="M139,180.52076 C138.983065,181.860051 137.922588,182.950249 136.58995,182.998353 C135.257313,183.046456 134.12166,182.035531 134.009054,180.700916 C133.896449,179.366301 134.846534,178.177836 136.168226,178 C137.269055,178.643574 138.231613,179.500415 139,180.52076 Z" id="Shape" fill="#F55F44" opacity="0.1"></path>
                <path d="M139.952,192.918905 C138.115604,195.315785 135.189614,196.817456 132,197 C132.000026,196.868036 132.000026,196.731185 132.000026,196.594334 C131.993944,194.856178 133.062133,193.264684 134.757685,192.485696 C136.453238,191.706708 138.483865,191.874513 140,192.918905 L139.952,192.918905 Z" id="Shape" fill="#F55F44" opacity="0.1"></path>
                <g id="Group" opacity="0.1" transform="translate(202.000000, 105.000000)" fill="#000000">
                    <polygon id="Rectangle-path" points="0.306346154 0.02 53.7871154 0.02 53.7871154 1.62 0.306346154 1.62"></polygon>
                </g>
            </g>
        </g>
    </g>
</svg>