<?xml version="1.0" encoding="UTF-8"?>
<svg width="291px" height="291px" viewBox="0 0 291 291" version="1.1" xmlns="http://www.w3.org/2000/svg" xmlns:xlink="http://www.w3.org/1999/xlink">
    <!-- Generator: Sketch 52.6 (67491) - http://www.bohemiancoding.com/sketch -->
    <title>Group</title>
    <desc>Created with Sketch.</desc>
    <g id="Product/category-cart-without-image" stroke="none" stroke-width="1" fill="none" fill-rule="evenodd">
        <g id="category-cart-without-image-copy" transform="translate(-46.000000, -58.000000)">
            <g id="Group" transform="translate(46.000000, 58.000000)">
                <rect id="Rectangle" fill="#E4E9F2" x="0" y="0" width="291" height="291"></rect>
                <path d="M185.176755,150.875612 L158.705192,177.187691 C156.274069,179.604167 152.332605,179.604038 149.901741,177.187691 L149.855054,177.141285 L180.77503,146.500406 L146.978065,113 L153.296572,113 C154.947542,113.000009 156.53089,113.651909 157.698298,114.812293 L185.176755,142.1252 C187.607748,144.541547 187.607748,148.459265 185.176755,150.875612 Z M168.576749,150.875612 L142.105185,177.187691 C140.889753,178.395929 139.296542,178.999984 137.70346,178.999984 C136.110378,178.999984 134.517167,178.395929 133.301735,177.187691 L105.823277,149.874784 C104.655861,148.71441 104.000009,147.140601 104,145.499578 L104,119.187498 C104,115.770195 106.786985,113 110.225002,113 L136.696566,113 C138.347542,112.99998 139.930899,113.651885 141.098291,114.812293 L168.576749,142.1252 C171.007742,144.541547 171.007742,148.459265 168.576749,150.875612 Z M164.175024,146.500406 L136.696566,119.187498 L110.225002,119.187498 L110.225002,145.499578 L137.703979,172.81197 L164.175024,146.500406 Z M122.675007,125.374997 C119.23699,125.374997 116.450005,128.145192 116.450005,131.562495 C116.450005,134.979799 119.23699,137.749994 122.675007,137.749994 C126.113024,137.749994 128.90001,134.979799 128.90001,131.562495 C128.90001,128.145192 126.113024,125.374997 122.675007,125.374997 Z" id="Shape" fill="#FFFFFF" fill-rule="nonzero"></path>
            </g>
        </g>
    </g>
</svg>