<?xml version="1.0" encoding="UTF-8"?>
<svg width="291px" height="291px" viewBox="0 0 291 291" version="1.1" xmlns="http://www.w3.org/2000/svg" xmlns:xlink="http://www.w3.org/1999/xlink">
    <!-- Generator: Sketch 52.6 (67491) - http://www.bohemiancoding.com/sketch -->
    <title>Group</title>
    <desc>Created with Sketch.</desc>
    <g id="Product/category-cart-without-image" stroke="none" stroke-width="1" fill="none" fill-rule="evenodd">
        <g id="product-cart-without-image" transform="translate(-46.000000, -58.000000)">
            <g id="Group" transform="translate(46.000000, 58.000000)">
                <rect id="Rectangle" fill="#E4E9F2" x="0" y="0" width="291" height="291"></rect>
                <path d="M191.755924,143.661153 L184.353266,128.804421 C183.778302,127.633803 182.614,127.431474 181.952792,127.518187 L174.665127,128.457571 L177.841801,119.699615 C178.373643,118.254407 178.301772,116.679131 177.654938,115.27728 C177.008104,113.875429 175.858176,112.820428 174.406393,112.285701 L166.428771,109.35193 C163.453334,108.253572 160.147292,109.814396 159.054861,112.805976 L154.613266,125.075786 C152.471526,115.869815 144.307041,109.00508 134.503909,109.00508 C123.680216,109.00508 114.897645,117.387283 113.977703,128.024009 L110.039201,127.518187 C109.377993,127.431474 108.228066,127.648255 107.638728,128.804421 L100.250444,143.661153 C99.5892352,144.990743 100.293566,146.580472 101.702227,146.98513 L109.205504,149.138489 L109.205504,170.426393 C109.205504,172.550848 110.642913,174.400713 112.684035,174.906536 L143.760825,182.725108 C145.715702,183.216478 147.354349,182.941889 148.216794,182.725108 L179.322333,174.906536 C181.363454,174.386261 182.800864,172.536396 182.800864,170.426393 L182.800864,149.138489 L190.289766,146.98513 C191.712802,146.580472 192.402758,144.990743 191.755924,143.661153 Z M165.149477,116.274473 L170.970985,118.398928 L166.974986,129.440312 L160.046673,130.321889 L165.149477,116.274473 Z M108.8749,141.840191 L112.367805,134.816484 L134.618902,137.663542 L128.696775,147.534308 L108.8749,141.840191 Z M142.553401,175.267838 L116.105069,168.619884 L116.105069,151.118423 L130.162933,155.150551 C131.31286,155.482949 132.347795,154.890414 132.82214,154.09555 L142.553401,137.880323 L142.553401,175.267838 Z M148.101801,131.853809 L146.003184,132.128398 L120.791023,128.905586 C121.279743,121.679549 127.201869,115.942076 134.503909,115.942076 C142.107804,115.942076 148.303039,122.170919 148.303039,129.816066 C148.303039,130.509766 148.20242,131.189013 148.101801,131.853809 Z M175.901299,168.619884 L149.452966,175.267838 L149.452966,137.880323 L159.184228,154.110002 C159.658573,154.904866 160.707882,155.497401 161.843435,155.165003 L175.901299,151.132875 L175.901299,168.619884 Z M163.295218,147.534308 L157.373092,137.663542 L179.638563,134.816484 L183.131468,141.840191 L163.295218,147.534308 Z" id="Shape" fill="#FFFFFF" fill-rule="nonzero"></path>
            </g>
        </g>
    </g>
</svg>